<?xml version="1.0" encoding="utf-8"?>
<!-- Generator: Adobe Illustrator 24.1.1, SVG Export Plug-In . SVG Version: 6.00 Build 0)  -->
<svg version="1.1" id="Layer_1" xmlns="http://www.w3.org/2000/svg" xmlns:xlink="http://www.w3.org/1999/xlink" x="0px" y="0px"
	 viewBox="0 0 512 512" style="enable-background:new 0 0 512 512;" xml:space="preserve">
<g>
	<path fill="#ffffff" d="M256,24.4l-22.9,8.4l147.5,400.4l-112.6-64.3c-7.5-4.3-16.7-4.3-24.2,0l-112.6,64.3L278.9,32.8L256,24.4l-22.9,8.4
		L256,24.4L233.1,16L62.5,479.2c-3.5,9.6-0.7,20.4,7.1,27c7.8,6.6,19,7.6,27.8,2.6L256,418.2l158.6,90.6c8.9,5.1,20,4.1,27.8-2.6
		c7.8-6.6,10.7-17.4,7.1-27L278.9,16C275.3,6.3,266.2,0,256,0c-10.2,0-19.3,6.3-22.9,16L256,24.4z"/>
</g>
</svg>
